<?xml version="1.0" encoding="UTF-8"?><svg xmlns="http://www.w3.org/2000/svg" xmlns:xlink="http://www.w3.org/1999/xlink" clip-rule="evenodd" fill-rule="evenodd" height="1.7" image-rendering="optimizeQuality" preserveAspectRatio="xMidYMid meet" shape-rendering="geometricPrecision" text-rendering="geometricPrecision" version="1.0" viewBox="0.3 0.3 1.7 1.7" width="1.7" zoomAndPan="magnify"><g><g id="change1_1"><path d="M1.53033 1.16937c-0.00187795,0.00435039 -0.00477559,0.00794882 -0.0082874,0.0106339 -0.000212598,0.000161417 -0.000425197,0.000318898 -0.000641732,0.000476378 0.0039252,-0.00283071 0.00700787,-0.00667323 0.00892913,-0.0111102zm-0.377386 0.206228l-0.000622047 -0.000354331c0.000204724,0.000122047 0.000409449,0.000244094 0.000622047,0.000354331zm0.039874 -0.32235l0.253287 0.108933 0.0491693 0.0211457c0.00343307,0.0014685 0.00701969,0.00217717 0.0105315,0.00217717 0.00465748,0 0.00921654,-0.00122835 0.0132205,-0.0035l-0.339087 0.193264c0.00771654,-0.00467323 0.012878,-0.0131496 0.012878,-0.0228346l0 -0.0458898 0 -0.253295zm-0.00314567 -0.495311l0.338815 0.586823c-0.00277953,-0.00447638 -0.00690551,-0.0081811 -0.0121142,-0.0104213l-0.0738228 -0.031748 -0.249732 -0.107409 0 -0.325146 0 -0.0995157c0,-0.00455118 -0.0011378,-0.00883465 -0.00314567,-0.0125827zm-0.050189 0.495319l0 0.253283 0 0.0458937c0,0.00967323 0.00514173,0.0181339 0.0128386,0.022811l-0.339047 -0.19324c0.00701969,0.00399213 0.0157559,0.00476772 0.0237638,0.00132283l0.0491654 -0.0211457 0.25328 -0.108925zm0.00314567 -0.495319c-0.00200787,0.00374803 -0.00314567,0.0080315 -0.00314567,0.0125827l0 0.0995236 0 0.325161 -0.249744 0.107406 -0.0737717 0.0317283c-0.0055,0.0023622 -0.00979921,0.00635433 -0.0125827,0.0111654l0.339244 -0.587567zm0.0466181 -0.00073622c-0.00477559,-0.00825197 -0.0135669,-0.0133346 -0.0230945,-0.0133504 0.00987795,0 0.0185,0.00536614 0.0230945,0.0133504zm-0.0230945 1.23229l0 0zm0.00100787 -0.359205l0.327929 -0.188102c0.0108031,-0.00622047 0.0244488,-0.00409843 0.032878,0.00505512 0.00842913,0.00915748 0.00941732,0.0229213 0.0023622,0.0331811l-0.341886 0.497043c-0.000106299,0.00015748 -0.000212598,0.000314961 -0.000322835,0.000468504 -0.000708661,0.00103543 -0.00148819,0.00201575 -0.00233858,0.00293701 -0.0011063,0.00120866 -0.00231496,0.00230315 -0.00361024,0.00327559 -0.00446063,0.00335827 -0.0100079,0.00534646 -0.0160354,0.00534646 -0.000452756,0 -0.000905512,-1.1811e-005 -0.00135433,-3.54331e-005 -0.00856693,-0.000433071 -0.016063,-0.00490157 -0.020622,-0.0115472 -0.000125984,-0.000173228 -0.000248031,-0.000350394 -0.000366142,-0.000531496l-0.340811 -0.49698c-0.0070315,-0.010252 -0.00604331,-0.0240157 0.00237008,-0.0331575 0.00843307,-0.00916535 0.0220591,-0.011248 0.0328465,-0.00507874l0.328961 0.188126zm-0.000496063 0.401264c0.36661,0 0.664878,-0.298264 0.664878,-0.664878 0,-0.366606 -0.298268,-0.664874 -0.664878,-0.664874 -0.366606,0 -0.664874,0.29826 -0.664874,0.664874 0,0.36661 0.298264,0.664878 0.664874,0.664878z" fill="#f1f1f2"/></g><g><g><g><g id="change2_6"><path d="M1.16615 1.3791c-0.00455906,0 -0.00911417,-0.00116535 -0.0132087,-0.00350394l-0.339669 -0.193594c-0.00616535,-0.00351181 -0.0106811,-0.00933465 -0.0125276,-0.0161929 -0.00186614,-0.00684646 -0.000905512,-0.0141693 0.0026378,-0.0203071l0.339669 -0.588303c0.00476772,-0.00825197 0.0135709,-0.0133346 0.0230984,-0.0133346 0.00952756,0 0.0183189,0.00508268 0.0230945,0.0133346l0.339669 0.588303c0.00354331,0.0061378 0.0045,0.0134606 0.00264173,0.0203071 -0.0018622,0.00685827 -0.00637402,0.0126811 -0.0125315,0.0161929l-0.339669 0.193594c-0.00409449,0.00233858 -0.00864961,0.00350394 -0.0132047,0.00350394zm-0.303165 -0.230154l0.303165 0.172791 0.303165 -0.172791 -0.303165 -0.525098 -0.303165 0.525098z" fill="#250e1e"/></g><g id="change2_1"><path d="M1.5058 1.1855c-0.00351181,0 -0.00709843,-0.000708661 -0.0105315,-0.00217717l-0.329114 -0.141543 -0.329122 0.141543c-0.0135512,0.00583071 -0.0292047,-0.000429134 -0.0350276,-0.0139567 -0.00582283,-0.0135433 0.000429134,-0.0292244 0.0139567,-0.0350315l0.339669 -0.146083c0.00672441,-0.00290157 0.0143465,-0.00290157 0.0210827,0l0.339654 0.146083c0.0135276,0.00582283 0.0197795,0.0215039 0.0139567,0.0350315 -0.00435827,0.0100945 -0.0141929,0.0161339 -0.0245236,0.0161339z" fill="#250e1e"/></g><g id="change2_7"><path d="M1.16615 1.3791c-0.0147362,0 -0.0266693,-0.0119331 -0.0266693,-0.0266693l0 -0.781913c0,-0.0147362 0.0119331,-0.0266693 0.0266693,-0.0266693 0.0147323,0 0.0266654,0.0119331 0.0266654,0.0266693l0 0.781913c0,0.0147362 -0.0119409,0.0266693 -0.0266654,0.0266693z" fill="#250e1e"/></g><g id="change2_2"><path d="M1.16615 1.78948c0,0 -1.5748e-005,0 -1.5748e-005,0 -0.00877953,0 -0.0170039,-0.00434646 -0.0219764,-0.0115827l-0.341177 -0.497512c-0.0070315,-0.010252 -0.00604331,-0.0240157 0.00237008,-0.0331575 0.00843307,-0.00916535 0.0220591,-0.011248 0.0328465,-0.00507874l0.328961 0.188126 0.327929 -0.188102c0.0108031,-0.00622047 0.0244488,-0.00409843 0.032878,0.00505512 0.00842913,0.00915748 0.00941732,0.0229213 0.0023622,0.0331811l-0.342209 0.497512c-0.0049685,0.00724016 -0.0131929,0.0115591 -0.0219685,0.0115591zm-0.253319 -0.44322l0.253358 0.369457 0.253791 -0.368961 -0.239528 0.137394c-0.00822047,0.00472441 -0.0182953,0.00472441 -0.0265,2.3622e-005l-0.241122 -0.137913z" fill="#250e1e"/></g><g id="change2_4"><path d="M1.16615 1.78948c-0.0147362,0 -0.0266693,-0.0119291 -0.0266693,-0.0266654l0 -0.301807c0,-0.0147323 0.0119331,-0.0266654 0.0266693,-0.0266654 0.0147323,0 0.0266654,0.0119331 0.0266654,0.0266654l0 0.301807c0,0.0147244 -0.0119409,0.0266654 -0.0266654,0.0266654z" fill="#250e1e"/></g></g><g id="change2_5"><path d="M1.16666 2.02c-0.470528,0 -0.853331,-0.382803 -0.853331,-0.853335 0,-0.470528 0.382803,-0.853331 0.853331,-0.853331 0.470543,0 0.853335,0.382803 0.853335,0.853331 0,0.470543 -0.382791,0.853335 -0.853335,0.853335zm0 -1.65333c-0.441122,0 -0.799996,0.358878 -0.799996,0.8 0,0.441126 0.358874,0.800016 0.799996,0.800016 0.441126,0 0.800016,-0.358886 0.800016,-0.800016 0,-0.441126 -0.35889,-0.8 -0.800016,-0.8z" fill="#250e1e"/></g><g id="change2_3"><path d="M1.16666 1.88488c-0.396024,0 -0.718209,-0.322181 -0.718209,-0.718213 0,-0.396031 0.322181,-0.718209 0.718209,-0.718209 0.396031,0 0.718209,0.322177 0.718209,0.718209 0,0.396031 -0.322181,0.718213 -0.718209,0.718213zm0 -1.38309c-0.366606,0 -0.664874,0.29826 -0.664874,0.664874 0,0.36661 0.298264,0.664878 0.664874,0.664878 0.36661,0 0.664878,-0.298264 0.664878,-0.664878 0,-0.366606 -0.298268,-0.664874 -0.664878,-0.664874z" fill="#250e1e"/></g></g></g><g id="change3_1"><path d="M1.16666 0.448457c0.396031,0 0.718209,0.322177 0.718209,0.718209 0,0.396031 -0.322181,0.718213 -0.718209,0.718213 -0.396024,0 -0.718209,-0.322181 -0.718209,-0.718213 0,-0.396031 0.322181,-0.718209 0.718209,-0.718209zm-0.799996 0.718209c0,0.441126 0.358874,0.800016 0.799996,0.800016 0.441126,0 0.800016,-0.358886 0.800016,-0.800016 0,-0.441126 -0.35889,-0.8 -0.800016,-0.8 -0.441122,0 -0.799996,0.358878 -0.799996,0.8z" fill="#cecece"/></g><g id="change4_1"><path d="M1.41998 1.34676L1.19281 1.47706 1.19281 1.67701z" fill="#9c9c9d"/></g><g id="change4_2"><path d="M1.13948 1.4759L0.912831 1.34626 1.13948 1.67677z" fill="#9c9c9d"/></g><g id="change5_1"><path d="M1.19281 1.05324L1.19281 1.30654 1.4461 1.16218z" fill="#f0f1f1"/></g><g id="change5_2"><path d="M1.13948 1.30654L1.13948 1.05325 0.886201 1.16218z" fill="#f0f1f1"/></g><g id="change4_3"><path d="M0.889736 1.10261L1.13948 0.995201 1.13948 0.670039z" fill="#9c9c9d"/></g><g id="change4_4"><path d="M1.19281 0.670031L1.19281 0.995177 1.44255 1.10259z" fill="#9c9c9d"/></g></g></svg>