<?xml version="1.0" encoding="UTF-8" standalone="no"?><svg xmlns="http://www.w3.org/2000/svg" xmlns:xlink="http://www.w3.org/1999/xlink" fill="#ffbd59" height="115" preserveAspectRatio="xMidYMid meet" version="1" viewBox="135.7 442.5 728.7 115.0" width="728.7" zoomAndPan="magnify"><g id="change1_1"><path d="M397.6,557.51c-1.25,0-2.3-0.97-2.38-2.23c-0.08-1.32,0.91-2.45,2.23-2.54c0.63-0.04,1.27-0.09,1.9-0.16 c1.87-0.19,3.76-0.49,5.62-0.89c1.29-0.28,2.56,0.54,2.84,1.83c0.28,1.29-0.54,2.56-1.83,2.84c-2.04,0.44-4.1,0.77-6.15,0.98 c-0.7,0.07-1.39,0.13-2.08,0.17C397.71,557.51,397.65,557.51,397.6,557.51z M381.8,556.24c-0.17,0-0.34-0.02-0.51-0.06 c-2.59-0.57-5.25-1.32-7.92-2.23c-1.25-0.43-1.91-1.78-1.49-3.03c0.43-1.25,1.78-1.91,3.03-1.49c2.49,0.85,4.98,1.55,7.39,2.08 c1.29,0.28,2.1,1.56,1.82,2.84C383.89,555.48,382.9,556.24,381.8,556.24z M176.05,555.16c-0.05,0-0.11,0-0.17-0.01 c-2.9-0.2-5.74-0.81-8.43-1.83c-1.23-0.46-1.86-1.84-1.39-3.08c0.47-1.23,1.84-1.86,3.08-1.39c2.26,0.85,4.64,1.37,7.07,1.53 c1.32,0.09,2.31,1.23,2.22,2.55C178.34,554.2,177.29,555.16,176.05,555.16z M191.58,552.38c-0.94,0-1.84-0.56-2.21-1.49 c-0.5-1.22,0.09-2.61,1.31-3.11c2.23-0.91,4.52-2.05,6.79-3.4c1.13-0.67,2.6-0.3,3.27,0.83c0.67,1.13,0.3,2.6-0.84,3.27 c-2.48,1.47-4.98,2.72-7.43,3.72C192.18,552.32,191.88,552.38,191.58,552.38z M605.54,551.31c-2.43,0-4.86-0.2-7.23-0.59 c-1.3-0.22-2.18-1.45-1.96-2.75c0.22-1.3,1.44-2.18,2.75-1.96c2.44,0.41,4.96,0.58,7.48,0.51c1.35-0.03,2.41,1.01,2.45,2.33 c0.03,1.32-1.01,2.41-2.33,2.45C606.31,551.31,605.92,551.31,605.54,551.31z M420.41,551.03c-0.88,0-1.72-0.48-2.14-1.32 c-0.59-1.18-0.11-2.61,1.07-3.2c2.2-1.1,4.46-2.38,6.74-3.79c1.12-0.7,2.59-0.35,3.29,0.77c0.7,1.12,0.35,2.59-0.77,3.29 c-2.4,1.49-4.8,2.84-7.12,4C421.13,550.95,420.77,551.03,420.41,551.03z M622.19,548.29c-0.99,0-1.91-0.61-2.25-1.6 c-0.44-1.24,0.22-2.61,1.46-3.04c2.31-0.81,4.69-1.81,7.09-2.97c1.19-0.57,2.62-0.08,3.19,1.11c0.57,1.19,0.08,2.61-1.11,3.19 c-2.55,1.24-5.11,2.31-7.59,3.18C622.72,548.25,622.45,548.29,622.19,548.29z M359.62,547.61c-0.38,0-0.77-0.09-1.13-0.29 c-2.25-1.22-4.61-2.58-7.01-4.06c-1.12-0.69-1.47-2.16-0.78-3.28c0.69-1.12,2.16-1.47,3.28-0.78c2.32,1.43,4.6,2.75,6.78,3.92 c1.16,0.63,1.59,2.08,0.96,3.24C361.29,547.16,360.46,547.61,359.62,547.61z M583.87,545.29c-0.41,0-0.82-0.11-1.2-0.33 c-2.28-1.33-4.52-2.86-6.83-4.66c-1.04-0.81-1.23-2.31-0.42-3.35c0.81-1.04,2.31-1.23,3.35-0.42c2.14,1.67,4.21,3.08,6.3,4.3 c1.14,0.67,1.52,2.13,0.86,3.27C585.49,544.86,584.69,545.29,583.87,545.29z M810.66,539.78c-0.09,0-0.19-0.01-0.29-0.02 c-2.65-0.32-5.4-0.9-8.18-1.73c-1.26-0.38-1.98-1.71-1.6-2.97c0.38-1.26,1.71-1.98,2.97-1.6c2.51,0.75,5,1.28,7.38,1.56 c1.31,0.16,2.24,1.34,2.09,2.65C812.89,538.89,811.85,539.78,810.66,539.78z M211.32,539.19c-0.64,0-1.27-0.25-1.74-0.75 c-0.9-0.96-0.86-2.47,0.1-3.37c0.65-0.61,1.29-1.23,1.91-1.86c1.2-1.21,2.39-2.45,3.57-3.7c0.9-0.96,2.41-1.01,3.37-0.1 s1.01,2.41,0.1,3.37c-1.21,1.29-2.43,2.56-3.66,3.8c-0.66,0.66-1.33,1.32-2.03,1.97C212.5,538.97,211.91,539.19,211.32,539.19z M826.28,537.9c-0.93,0-1.81-0.54-2.2-1.45c-0.52-1.21,0.05-2.62,1.26-3.13c2.2-0.94,4.23-2.23,6.03-3.83 c0.98-0.88,2.49-0.79,3.37,0.19c0.88,0.98,0.79,2.49-0.19,3.37c-2.19,1.95-4.65,3.52-7.34,4.67 C826.91,537.84,826.59,537.9,826.28,537.9z M440.27,537.86c-0.7,0-1.39-0.31-1.87-0.9c-0.82-1.03-0.66-2.53,0.37-3.36 c1.88-1.5,3.86-3.15,6.07-5.03c1-0.86,2.51-0.74,3.37,0.27c0.86,1,0.74,2.51-0.27,3.37c-2.25,1.92-4.27,3.59-6.19,5.13 C441.32,537.69,440.79,537.86,440.27,537.86z M643.2,537.09c-0.76,0-1.5-0.36-1.96-1.02c-0.75-1.08-0.49-2.57,0.6-3.32 c2.04-1.42,4.16-2.98,6.3-4.65c1.04-0.81,2.54-0.62,3.35,0.42c0.81,1.04,0.62,2.54-0.42,3.35c-2.21,1.72-4.4,3.33-6.51,4.8 C644.14,536.96,643.67,537.09,643.2,537.09z M339.49,534.77c-0.48,0-0.96-0.14-1.38-0.44c-2.18-1.55-4.34-3.12-6.47-4.69 c-1.06-0.78-1.29-2.27-0.51-3.34c0.78-1.06,2.27-1.29,3.34-0.51c2.12,1.55,4.26,3.11,6.42,4.65c1.07,0.76,1.33,2.26,0.56,3.33 C340.97,534.42,340.24,534.77,339.49,534.77z M788.42,531.57c-0.43,0-0.86-0.11-1.25-0.35c-2.35-1.44-4.62-3.02-6.76-4.71 c-1.04-0.82-1.21-2.32-0.4-3.35c0.82-1.04,2.32-1.21,3.35-0.4c1.99,1.57,4.11,3.05,6.29,4.39c1.12,0.69,1.48,2.16,0.79,3.28 C790.01,531.16,789.23,531.57,788.42,531.57z M565.63,530c-0.63,0-1.25-0.25-1.72-0.73c-1.84-1.92-3.66-3.88-5.48-5.85 c-0.89-0.97-0.83-2.48,0.14-3.37c0.97-0.89,2.48-0.83,3.37,0.14c1.79,1.95,3.59,3.89,5.41,5.78c0.91,0.95,0.88,2.46-0.07,3.38 C566.82,529.78,566.22,530,565.63,530z M458.39,522.31c-0.67,0-1.33-0.28-1.8-0.82c-0.87-0.99-0.77-2.5,0.23-3.37l1.75-1.52 c1.43-1.24,2.89-2.47,4.37-3.68c1.02-0.83,2.53-0.68,3.36,0.34c0.83,1.02,0.68,2.53-0.34,3.36c-1.45,1.19-2.87,2.39-4.27,3.59 l-1.73,1.51C459.51,522.12,458.95,522.31,458.39,522.31z M661.78,522.12c-0.66,0-1.31-0.27-1.78-0.79 c-0.88-0.98-0.8-2.49,0.19-3.37l1.46-1.32c1.47-1.33,2.96-2.67,4.48-4.01c0.99-0.87,2.5-0.78,3.37,0.21 c0.87,0.99,0.78,2.5-0.21,3.37c-1.5,1.32-2.98,2.65-4.44,3.97l-1.48,1.33C662.92,521.92,662.35,522.12,661.78,522.12z M227.72,521.84c-0.59,0-1.19-0.22-1.65-0.66c-0.95-0.91-0.99-2.42-0.08-3.38c2.08-2.18,3.96-4.05,5.75-5.71 c0.97-0.9,2.48-0.84,3.37,0.12c0.9,0.97,0.84,2.48-0.12,3.37c-1.71,1.6-3.53,3.4-5.55,5.51 C228.98,521.59,228.35,521.84,227.72,521.84z M320.14,520.78c-0.46,0-0.93-0.13-1.34-0.42c-2.23-1.52-4.44-2.97-6.58-4.3 c-1.12-0.7-1.46-2.17-0.77-3.29c0.7-1.12,2.17-1.46,3.29-0.77c2.2,1.37,4.47,2.85,6.75,4.41c1.09,0.74,1.37,2.23,0.62,3.32 C321.65,520.42,320.91,520.78,320.14,520.78z M770.13,516.31c-0.6,0-1.2-0.22-1.66-0.67l-1.63-1.58c-1.36-1.32-2.72-2.64-4.08-3.95 c-0.95-0.91-0.99-2.42-0.08-3.38c0.91-0.95,2.42-0.99,3.38-0.08c1.38,1.32,2.74,2.64,4.11,3.97l1.62,1.57 c0.95,0.92,0.97,2.43,0.05,3.38C771.38,516.07,770.76,516.31,770.13,516.31z M549.2,512.66c-0.6,0-1.2-0.22-1.66-0.68 c-2.03-1.97-3.92-3.68-5.76-5.21c-1.02-0.84-1.16-2.35-0.32-3.36c0.84-1.02,2.35-1.16,3.36-0.32c1.95,1.61,3.92,3.4,6.05,5.46 c0.95,0.92,0.97,2.43,0.05,3.38C550.44,512.42,549.82,512.66,549.2,512.66z M299.54,508.77c-0.34,0-0.69-0.07-1.02-0.23 c-2.42-1.14-4.82-2.17-7.15-3.05c-1.23-0.47-1.85-1.85-1.39-3.08c0.47-1.23,1.85-1.85,3.08-1.39c2.44,0.93,4.96,2,7.49,3.19 c1.19,0.56,1.7,1.99,1.14,3.18C301.29,508.26,300.43,508.77,299.54,508.77z M477.29,507.75c-0.78,0-1.55-0.39-2.01-1.09 c-0.71-1.11-0.4-2.59,0.71-3.3c2.35-1.52,4.7-2.92,7-4.16c1.16-0.63,2.61-0.2,3.24,0.96c0.63,1.16,0.2,2.61-0.96,3.24 c-2.19,1.19-4.44,2.52-6.69,3.98C478.18,507.63,477.73,507.75,477.29,507.75z M246.08,506.72c-0.84,0-1.65-0.44-2.09-1.23 c-0.64-1.15-0.23-2.61,0.92-3.25c1.75-0.97,3.54-1.84,5.33-2.57c0.76-0.31,1.52-0.6,2.29-0.87c1.25-0.43,2.61,0.22,3.04,1.47 c0.43,1.25-0.22,2.61-1.47,3.04c-0.69,0.24-1.38,0.5-2.06,0.78c-1.61,0.66-3.23,1.44-4.81,2.32 C246.87,506.62,246.47,506.72,246.08,506.72z M679.98,506.66c-0.72,0-1.43-0.32-1.9-0.94c-0.8-1.05-0.6-2.55,0.45-3.35 c2.23-1.71,4.44-3.3,6.56-4.74c1.09-0.74,2.58-0.45,3.32,0.64c0.74,1.09,0.46,2.58-0.64,3.32c-2.05,1.39-4.18,2.93-6.35,4.58 C680.99,506.5,680.48,506.66,679.98,506.66z M276.88,501.52c-0.12,0-0.24-0.01-0.35-0.03c-2.58-0.38-5.13-0.58-7.58-0.6 c-1.32-0.01-2.38-1.08-2.38-2.4c0.01-1.31,1.07-2.38,2.39-2.38c0,0,0.01,0,0.01,0c2.68,0.01,5.46,0.23,8.26,0.65 c1.3,0.19,2.2,1.41,2.01,2.71C279.06,500.67,278.04,501.52,276.88,501.52z M752.44,500.29c-0.51,0-1.02-0.16-1.45-0.49 c-2.19-1.67-4.26-3.09-6.34-4.35c-1.13-0.68-1.49-2.15-0.81-3.28c0.68-1.13,2.15-1.49,3.28-0.81c2.23,1.34,4.45,2.86,6.78,4.64 c1.05,0.8,1.25,2.3,0.45,3.35C753.87,499.97,753.16,500.29,752.44,500.29z M529.9,498.85c-0.32,0-0.64-0.06-0.95-0.2 c-1.59-0.69-3.21-1.28-4.83-1.74c-0.76-0.22-1.53-0.42-2.29-0.59c-1.29-0.29-2.09-1.57-1.8-2.85c0.29-1.29,1.57-2.09,2.85-1.8 c0.86,0.19,1.71,0.41,2.57,0.66c1.81,0.53,3.63,1.18,5.4,1.95c1.21,0.53,1.76,1.93,1.24,3.14 C531.7,498.32,530.82,498.85,529.9,498.85z M498.77,497.51c-1.03,0-1.99-0.68-2.29-1.72c-0.37-1.27,0.35-2.59,1.62-2.96 c2.73-0.8,5.46-1.39,8.11-1.77c1.3-0.18,2.51,0.73,2.7,2.03c0.18,1.31-0.73,2.51-2.03,2.7c-2.42,0.34-4.92,0.89-7.43,1.62 C499.22,497.48,498.99,497.51,498.77,497.51z M700.24,494.12c-0.91,0-1.78-0.52-2.17-1.4c-0.55-1.2-0.01-2.62,1.19-3.16 c2.59-1.18,5.18-2.17,7.69-2.96c1.26-0.39,2.6,0.3,2.99,1.56c0.39,1.26-0.3,2.6-1.56,2.99c-2.33,0.73-4.74,1.66-7.15,2.75 C700.91,494.05,700.57,494.12,700.24,494.12z M731.22,489.84c-0.16,0-0.33-0.02-0.5-0.05c-2.44-0.52-4.95-0.81-7.45-0.87 c-1.32-0.03-2.36-1.12-2.33-2.44c0.03-1.32,1.12-2.37,2.44-2.33c2.8,0.06,5.6,0.39,8.34,0.97c1.29,0.27,2.11,1.54,1.84,2.83 C733.31,489.07,732.32,489.84,731.22,489.84z"/><path d="M845.92,504.39c10.11,0,18.42-33.31,18.42-43.49c0-10.17-8.25-18.42-18.42-18.42s-18.42,8.25-18.42,18.42 C827.5,471.08,835.08,504.31,845.92,504.39z M833.64,460.91c0-6.78,5.5-12.28,12.28-12.28c6.78,0,12.28,5.5,12.28,12.28 c0,6.78-5.5,12.28-12.28,12.28C839.14,473.19,833.64,467.69,833.64,460.91z"/><circle cx="845.92" cy="518.52" r="7.85"/><path d="M154.08,464.77c-10.17,0-18.42,8.25-18.42,18.42s7.58,43.4,18.42,43.49c10.11,0,18.42-33.31,18.42-43.49 S164.25,464.77,154.08,464.77z M154.08,495.47c-6.78,0-12.28-5.5-12.28-12.28c0-6.78,5.5-12.28,12.28-12.28 c6.78,0,12.28,5.5,12.28,12.28C166.36,489.97,160.86,495.47,154.08,495.47z"/><circle cx="154.08" cy="540.8" r="7.85"/></g></svg>